PathFileType	4	(X/Y/Z)	C:\Users\WrightLab\Desktop\Jo\P5V212.trc
DataRate	CameraRate	NumFrames	NumMarkers	Units	OrigDataRate	OrigDataStartFrame	OrigNumFrames
100.00	100.00	       8	19	mm	100.00	118	       469
Frame#	Time	Headset_Front			Headset_Back			Headset_Left			Headset_Right			Left_Shoulder			Right_Shoulder			Sternum			C7			Left Elbow			Right Elbow			Left Wrist			Right Wrist			Left ASIS			Right ASIS			S2			Left Knee			Right Knee			Left Ankle			Right Ankle			
		X1	Y1	Z1	X2	Y2	Z2	X3	Y3	Z3	X4	Y4	Z4	X5	Y5	Z5	X6	Y6	Z6	X7	Y7	Z7	X8	Y8	Z8	X9	Y9	Z9	X10	Y10	Z10	X11	Y11	Z11	X12	Y12	Z12	X13	Y13	Z13	X14	Y14	Z14	X15	Y15	Z15	X16	Y16	Z16	X17	Y17	Z17	X18	Y18	Z18	X19	Y19	Z19	

118	1.170										-433.50427	1644.07776	-909.82233	-316.89972	1312.13147	-965.51874	-351.94714	1510.80884	-1174.28918										-628.87329	1172.60486	-1034.31262	-71.72798	956.32037	-989.93463	-562.40253	1045.47827	-846.06055	-182.54381	918.55109	-973.45898	-450.61215	936.18823	-949.12787	-310.21613	957.44373	-1253.76440	-143.49709	478.26193	-1032.46936	-520.25562	473.90515	-1028.98987	-225.69638	67.80993	-1143.12634				
119	1.180										-432.78702	1643.46912	-909.11407	-314.65204	1312.08569	-964.54926	-351.14319	1510.90417	-1174.14673							-17.95894	1221.94360	-955.17273	-628.73657	1173.01758	-1033.16614	-71.07945	955.84485	-987.25488	-561.41040	1045.21313	-844.91150	-182.21898	918.37268	-973.25464	-449.53989	936.29987	-948.00177	-309.66400	957.35034	-1253.03857	-142.94751	478.65521	-1031.14978	-520.73523	474.67648	-1027.31409	-225.69638	67.80993	-1143.12634				
120	1.190										-432.02383	1642.83044	-908.40076	-313.69000	1311.83118	-963.07800	-350.34167	1510.88586	-1173.57507							-16.69821	1221.55835	-954.03424	-627.72266	1172.98779	-1032.86389	-69.68619	955.54144	-986.54919	-560.16437	1044.65186	-844.39532	-180.57390	918.13220	-971.11700	-448.02527	935.85272	-946.94714	-308.97482	957.44464	-1252.39673	-142.82852	478.13840	-1030.64880	-520.07465	474.41406	-1026.66565	-225.69638	67.80993	-1143.12634				
121	1.200										-431.18240	1641.71570	-906.62933	-313.58881	1311.94006	-962.65771	-349.39554	1510.59009	-1172.09631							-16.60295	1221.72021	-953.83179	-627.08807	1172.91541	-1031.68127	-68.47263	955.60303	-985.99310	-559.26611	1044.50635	-843.66760	-180.19958	918.39862	-969.96735	-447.67178	935.95776	-945.99634	-308.19873	956.89270	-1250.74316	-142.96381	477.59631	-1029.86011	-519.16113	473.91718	-1024.96545	-225.69638	67.80993	-1143.12634				
122	1.210										-430.42886	1640.63367	-905.52966	-313.30151	1312.26794	-961.58679	-348.51169	1510.61194	-1171.92383							-16.53959	1221.81409	-953.53082	-625.92883	1173.00232	-1031.83044	-68.27738	956.12219	-985.17175	-558.60773	1044.78235	-842.47540	-179.16321	918.52252	-969.57184	-446.02097	935.88525	-944.81940	-307.31778	957.38855	-1250.08643	-142.07263	477.25189	-1027.58276	-518.99066	473.85962	-1024.06433	-225.69638	67.80993	-1143.12634				
123	1.220										-429.61200	1639.32312	-903.58588	-313.15491	1312.49756	-961.44440	-347.57031	1510.61633	-1171.22827							-16.27579	1222.18469	-952.03827	-624.96344	1173.07385	-1030.72900	-67.06107	955.35931	-982.69281	-558.51837	1045.08215	-842.50427	-177.99966	918.88208	-968.57391	-445.99115	935.87891	-944.58466	-306.71915	957.67737	-1250.08728	-141.50081	477.06918	-1026.70093	-518.56396	473.53061	-1023.04980	-225.69638	67.80993	-1143.12634				
124	1.230										-428.85464	1638.26074	-903.00940	-311.19684	1311.79321	-960.53387	-346.64206	1510.32178	-1170.47461							-15.07948	1221.69324	-951.04944	-624.01123	1172.64368	-1029.79004	-66.82787	955.85059	-982.17914	-557.46045	1044.30981	-841.72900	-177.09976	918.60590	-967.99677	-445.26959	935.64709	-943.24963	-305.90231	957.16614	-1248.08716	-140.60570	477.79462	-1025.59839	-517.91498	473.99991	-1020.55664	-225.69638	67.80993	-1143.12634				
125	1.240										-428.19769	1636.44189	-901.02631	-310.11111	1311.92273	-959.02771	-345.53625	1509.99255	-1168.83850							-15.19188	1221.44580	-950.61011	-623.03296	1172.15283	-1028.91296	-66.73020	955.45532	-981.53162	-556.96771	1044.74597	-840.38354	-176.09950	917.65533	-967.28589	-445.25562	935.85510	-942.93677	-305.40811	956.65918	-1246.91577	-139.42706	477.54263	-1024.68347	-517.24005	473.52756	-1019.48682	-225.69638	67.80993	-1143.12634				
